<svg class="svg-icon" style="width: 1em; height: 1em; vertical-align: middle;" viewBox="0 0 1024 1024" version="1.1" xmlns="http://www.w3.org/2000/svg">
  <path
    d="M384 384h42.666667a42.666667 42.666667 0 0 1 0 85.333333H384v42.666667a42.666667 42.666667 0 0 1-85.333333 0v-42.666667H256a42.666667 42.666667 0 0 1 0-85.333333h42.666667V341.333333a42.666667 42.666667 0 1 1 85.333333 0v42.666667zM170.666667 768h170.666666a42.666667 42.666667 0 0 1 0 85.333333H128a42.666667 42.666667 0 0 1-42.666667-42.666666V298.666667a42.666667 42.666667 0 0 1 12.501334-30.165334l85.333333-85.333333A42.666667 42.666667 0 0 1 213.333333 170.666667h597.333334a42.666667 42.666667 0 0 1 30.165333 12.501333l85.333333 85.333333A42.666667 42.666667 0 0 1 938.666667 298.666667v512a42.666667 42.666667 0 0 1-42.666667 42.666666h-213.333333a42.666667 42.666667 0 0 1-38.144-23.594666L570.965333 682.666667h-117.930666l-11.221334 22.442666a42.666667 42.666667 0 1 1-76.330666-38.144l23.04-46.08A42.666667 42.666667 0 0 1 426.666667 597.333333h170.666666a42.666667 42.666667 0 0 1 38.144 23.594667L709.034667 768H853.333333V316.330667L793.002667 256H230.997333L170.666667 316.330667V768zm512-384a42.666667 42.666667 0 1 1 0-85.333333 42.666667 42.666667 0 0 1 0 85.333333z m0 170.666667a42.666667 42.666667 0 1 1 0-85.333334 42.666667 42.666667 0 0 1 0 85.333334z m85.333333-85.333334a42.666667 42.666667 0 1 1 0-85.333333 42.666667 42.666667 0 0 1 0 85.333333z m-170.666667 0a42.666667 42.666667 0 1 1 0-85.333333 42.666667 42.666667 0 0 1 0 85.333333z"
    fill="#00FF00"
    fill-opacity="0.2"
  />
</svg>
